<svg width="1600" height="1600" viewBox="0 0 1600 1600" fill="none" xmlns="http://www.w3.org/2000/svg">
  <rect width="1600" height="1600" fill="#23244C"/>
  <g stroke="#6DD5DB" stroke-width="6" stroke-linecap="round" stroke-linejoin="round">
    <circle cx="800" cy="790" r="430" stroke-dasharray="1 22"/>

    <path d="M973 318C1014 355 1047 395 1077 438C1106 479 1143 513 1181 558C1225 610 1267 670 1290 734C1309 787 1317 842 1316 900"/>
    <path d="M1014 358C997 330 989 302 992 272"/>
    <path d="M1058 388C1053 348 1062 312 1083 277"/>
    <path d="M1110 458C1115 416 1128 382 1152 350"/>
    <path d="M1198 578C1195 529 1207 490 1230 452"/>
    <path d="M1268 714C1297 664 1322 635 1346 606"/>
    <path d="M944 402C894 385 846 381 776 393"/>
    <path d="M984 465C949 461 920 467 888 485"/>
    <path d="M1036 530C1000 535 970 548 945 570"/>

    <path d="M401 902C403 958 390 1010 364 1064C337 1120 316 1178 315 1240"/>
    <path d="M371 1028C356 996 348 966 350 935"/>
    <path d="M421 1106C394 1077 371 1061 345 1045"/>
    <path d="M468 1164C437 1148 408 1140 377 1138"/>
    <path d="M548 1217C509 1200 474 1193 434 1195"/>
    <path d="M617 1266C573 1260 535 1267 492 1287"/>
    <path d="M682 1225C640 1198 603 1185 556 1175"/>
    <path d="M734 1182C694 1168 657 1168 621 1174"/>
  </g>

  <g fill="#6DD5DB">
    <ellipse cx="880" cy="402" rx="74" ry="20" transform="rotate(-5 880 402)"/>
    <ellipse cx="946" cy="302" rx="21" ry="44" transform="rotate(-58 946 302)"/>
    <ellipse cx="1007" cy="270" rx="15" ry="28" transform="rotate(8 1007 270)"/>
    <ellipse cx="1085" cy="266" rx="16" ry="44" transform="rotate(2 1085 266)"/>
    <ellipse cx="1163" cy="358" rx="19" ry="46" transform="rotate(-37 1163 358)"/>
    <ellipse cx="1214" cy="451" rx="18" ry="42" transform="rotate(-28 1214 451)"/>
    <ellipse cx="1021" cy="447" rx="57" ry="20" transform="rotate(14 1021 447)"/>
    <ellipse cx="1100" cy="496" rx="42" ry="19" transform="rotate(55 1100 496)"/>
    <ellipse cx="1210" cy="590" rx="17" ry="40" transform="rotate(61 1210 590)"/>
    <ellipse cx="1305" cy="760" rx="17" ry="38" transform="rotate(6 1305 760)"/>
    <ellipse cx="1117" cy="572" rx="39" ry="12" transform="rotate(20 1117 572)" fill-opacity="0.25"/>

    <ellipse cx="395" cy="1087" rx="14" ry="36" transform="rotate(28 395 1087)"/>
    <ellipse cx="437" cy="1160" rx="15" ry="39" transform="rotate(22 437 1160)"/>
    <ellipse cx="472" cy="1222" rx="15" ry="42" transform="rotate(15 472 1222)"/>
    <ellipse cx="522" cy="1255" rx="16" ry="40" transform="rotate(10 522 1255)"/>
    <ellipse cx="603" cy="1258" rx="18" ry="62" transform="rotate(0 603 1258)"/>
    <ellipse cx="694" cy="1203" rx="15" ry="38" transform="rotate(-28 694 1203)"/>
    <ellipse cx="336" cy="1212" rx="12" ry="28" transform="rotate(-14 336 1212)"/>
    <ellipse cx="318" cy="1193" rx="7" ry="7"/>
    <ellipse cx="346" cy="1178" rx="7" ry="7"/>
    <ellipse cx="370" cy="1160" rx="7" ry="7"/>
    <ellipse cx="505" cy="1119" rx="12" ry="24" transform="rotate(-62 505 1119)"/>

    <circle cx="975" cy="342" r="8"/>
    <circle cx="994" cy="318" r="8"/>
    <circle cx="1030" cy="301" r="8"/>
    <circle cx="1051" cy="326" r="8"/>
    <circle cx="1117" cy="339" r="9"/>
    <circle cx="1142" cy="369" r="9"/>
    <circle cx="1195" cy="666" r="8"/>
    <circle cx="1220" cy="655" r="8"/>
    <circle cx="1250" cy="658" r="8"/>
    <circle cx="1252" cy="902" r="7"/>
    <circle cx="1248" cy="930" r="7"/>
    <circle cx="1242" cy="958" r="7"/>
    <circle cx="549" cy="1148" r="7"/>
    <circle cx="573" cy="1162" r="7"/>
    <circle cx="594" cy="1180" r="7"/>
    <circle cx="650" cy="1214" r="8"/>
    <circle cx="674" cy="1227" r="8"/>
    <circle cx="699" cy="1237" r="8"/>
  </g>

  <text x="800" y="820" text-anchor="middle" font-family="Georgia, 'Times New Roman', serif" font-size="250" fill="#6DD5DB" letter-spacing="4">CG</text>
  <text x="800" y="1440" text-anchor="middle" font-family="Georgia, 'Times New Roman', serif" font-size="135" font-weight="700" fill="#F5F1E8" letter-spacing="2">SGCGARTGLASS</text>
</svg>